# xmcd CD database file
#
# Track frame offsets:
#	150
#	13062
#	26012
#	38900
#	51925
#	64950
#	78850
#	93550
#	108037
#	122687
#	135700
#	151662
#	167475
#
# Disc length: 2408 seconds
#
# Revision: 2
# Processed by: cddbd v1.5.2PL0 Copyright (c) Steve Scherf et al.
# Submitted via: CDex 1.51
#
DISCID=9d09660d
DTITLE=???? - ???????VOL.1
DYEAR=1991
DGENRE=Jazz
TTITLE0=?????????????
TTITLE1=??????
TTITLE2=???????
TTITLE3=?????????
TTITLE4=?????
TTITLE5=?????????????
TTITLE6=??????1970-1975
TTITLE7=??????????
TTITLE8=?????
TTITLE9=7??????
TTITLE10=1/3???
TTITLE11=????????????????
TTITLE12=??
EXTD=YEAR: 1991
EXTT0=
EXTT1=
EXTT2=
EXTT3=
EXTT4=
EXTT5=
EXTT6=
EXTT7=
EXTT8=
EXTT9=
EXTT10=
EXTT11=
EXTT12=
PLAYORDER=
